<svg width="48" height="36" viewBox="0 0 48 36" fill="none" xmlns="http://www.w3.org/2000/svg">
<rect width="44" height="32" rx="16" fill="#D3DDE7"/>
<path d="M8 24.12H24V8.12H8V24.12Z" fill="#162432"/>
<path d="M30.944 12.936C30.432 12.936 29.936 13.0907 29.456 13.4C28.976 13.7093 28.5227 14.168 28.096 14.776L27.056 13.992C27.536 13.256 28.112 12.6853 28.784 12.28C29.4667 11.864 30.1867 11.656 30.944 11.656C31.904 11.656 32.672 11.912 33.248 12.424C33.8347 12.936 34.128 13.6187 34.128 14.472C34.128 14.888 34.0373 15.272 33.856 15.624C33.6747 15.976 33.3973 16.312 33.024 16.632C32.8107 16.8133 32.5547 16.9947 32.256 17.176C31.968 17.3573 31.5093 17.608 30.88 17.928C29.9947 18.3867 29.3973 18.7493 29.088 19.016C28.7893 19.272 28.6027 19.544 28.528 19.832H34.464V21H27.104V20.392C27.1147 19.9653 27.2053 19.576 27.376 19.224C27.5573 18.8613 27.824 18.52 28.176 18.2C28.3893 18.008 28.64 17.816 28.928 17.624C29.216 17.432 29.6693 17.176 30.288 16.856C31.2907 16.3227 31.936 15.896 32.224 15.576C32.5227 15.2453 32.672 14.888 32.672 14.504C32.672 14.024 32.512 13.6453 32.192 13.368C31.872 13.08 31.456 12.936 30.944 12.936Z" fill="#162432"/>
<circle cx="39.5" cy="27.5" r="4.5" fill="#D3DDE7"/>
<circle cx="46" cy="34" r="2" fill="#D3DDE7"/>
</svg>
